<svg xmlns="http://www.w3.org/2000/svg" width="375" viewBox="0 0 375 375" height="375" version="1.0"><path fill="#BD402E" d="M 355.535156 300.113281 L 19.464844 300.113281 C 11.523438 300.113281 4.96875 293.570312 4.96875 285.640625 L 4.96875 88.996094 C 4.96875 81.066406 11.523438 74.527344 19.464844 74.527344 L 355.339844 74.527344 C 363.28125 74.527344 369.832031 81.066406 369.832031 88.996094 L 369.832031 285.445312 C 370.03125 293.570312 363.476562 300.113281 355.535156 300.113281"/><path fill="#BD402E" d="M 355.535156 78.886719 C 361.097656 78.886719 365.664062 83.445312 365.664062 88.996094 L 365.664062 285.640625 C 365.664062 291.191406 361.097656 295.753906 355.535156 295.753906 L 19.464844 295.753906 C 13.902344 295.753906 9.335938 291.191406 9.335938 285.640625 L 9.335938 88.996094 C 9.335938 83.445312 13.902344 78.886719 19.464844 78.886719 L 355.535156 78.886719 M 355.535156 69.570312 L 19.464844 69.570312 C 8.742188 69.570312 0.0078125 78.292969 0.0078125 88.996094 L 0.0078125 285.640625 C 0.0078125 296.347656 8.742188 305.070312 19.464844 305.070312 L 355.535156 305.070312 C 366.257812 305.070312 374.992188 296.347656 374.992188 285.640625 L 374.992188 88.996094 C 374.992188 78.292969 366.257812 69.570312 355.535156 69.570312"/><g fill="#FFF"><g><g><path d="M 78 -2 C 84.53125 -2 88.695312 -3.195312 90.5 -5.59375 C 92.300781 -8 93.203125 -12.066406 93.203125 -17.796875 L 93.203125 -56.59375 L 80.40625 -56.59375 L 80.40625 -61 L 138 -61 L 138 -56.59375 L 130.203125 -56.59375 L 130.203125 -0.203125 L 127.203125 -0.203125 C 124.796875 -3.535156 121.394531 -5.203125 117 -5.203125 C 115.132812 -5.203125 109.566406 -4 100.296875 -1.59375 C 91.035156 0.800781 83.132812 2 76.59375 2 C 54.863281 2 38.03125 -3.863281 26.09375 -15.59375 C 14.164062 -27.332031 8.203125 -44.96875 8.203125 -68.5 C 8.203125 -92.03125 14.429688 -110.195312 26.890625 -123 C 39.359375 -135.800781 56.128906 -142.203125 77.203125 -142.203125 C 85.335938 -142.203125 93.503906 -141.164062 101.703125 -139.09375 C 109.898438 -137.03125 114.664062 -136 116 -136 C 117.332031 -136 118.332031 -136.296875 119 -136.890625 C 119.664062 -137.492188 120.398438 -138.53125 121.203125 -140 L 123.40625 -140 L 125 -96.59375 L 121.40625 -96.59375 C 114.863281 -109.53125 108.289062 -119.695312 101.6875 -127.09375 C 95.09375 -134.5 87.726562 -138.203125 79.59375 -138.203125 C 59.195312 -138.203125 49 -118.269531 49 -78.40625 L 49 -62.59375 C 49 -42.59375 51.5 -27.492188 56.5 -17.296875 C 61.5 -7.097656 68.664062 -2 78 -2 Z M 78 -2" transform="translate(45.809 263.625)"/></g></g></g><g fill="#FFF"><g><g><path d="M 86.40625 -3.796875 L 71.796875 -47 L 32.203125 -47 L 16.796875 -3.796875 L 31.796875 -3.796875 L 31.796875 0 L 1.203125 0 L 1.203125 -3.796875 L 10.59375 -3.796875 L 61.59375 -141.203125 L 78 -141.203125 L 128.40625 -3.796875 L 137.59375 -3.796875 L 137.59375 0 L 72.203125 0 L 72.203125 -3.796875 Z M 52.796875 -103.796875 L 34 -51.40625 L 70.203125 -51.40625 Z M 52.796875 -103.796875" transform="translate(190.405 263.625)"/></g></g></g></svg>